<svg width="16" height="14" viewBox="0 0 16 14" fill="none" xmlns="http://www.w3.org/2000/svg">
<path d="M13.9757 4.11105V4.51645C13.9757 8.59888 10.8784 13.2773 5.21081 13.2773C3.53768 13.2809 1.90008 12.7947 0.5 11.8786C0.743153 11.9116 0.988422 11.9265 1.23378 11.9232C2.62068 11.927 3.96858 11.4644 5.06081 10.6097C4.41649 10.6002 3.79155 10.3879 3.27482 10.0029C2.75809 9.61786 2.37585 9.07978 2.18243 8.4651C2.37436 8.50579 2.57003 8.52617 2.76622 8.52591C3.04017 8.52597 3.31289 8.48915 3.57703 8.41645C2.87915 8.27733 2.25132 7.90001 1.80094 7.34907C1.35057 6.79812 1.10566 6.10778 1.10811 5.39618V5.35564C1.53508 5.59415 2.01377 5.72495 2.5027 5.73672C1.85186 5.30844 1.38913 4.64779 1.20904 3.88978C1.02896 3.13176 1.14512 2.33359 1.53378 1.65834C2.30821 2.61084 3.27443 3.38969 4.36961 3.94427C5.4648 4.49885 6.66444 4.81673 7.89054 4.87726C7.82985 4.64716 7.8012 4.40979 7.80541 4.17186C7.78258 3.54304 7.95411 2.92246 8.29664 2.39462C8.63917 1.86679 9.13606 1.45735 9.71964 1.22205C10.3032 0.986757 10.9452 0.937041 11.558 1.07967C12.1709 1.22231 12.7249 1.55035 13.1446 2.01915C13.8345 1.87992 14.4963 1.62644 15.1027 1.26915C14.8727 1.99538 14.3835 2.61157 13.7284 3.00023C14.3404 2.9159 14.937 2.74387 15.5 2.48942C15.092 3.11603 14.5759 3.66512 13.9757 4.11105Z" stroke="#E3E3E3" stroke-width="0.75" stroke-linecap="round" stroke-linejoin="round"/>
</svg>
